<svg xmlns="http://www.w3.org/2000/svg" width="256" height="256" viewBox="0 0 100 100"><rect width="100" height="100" rx="50" fill="#fcfcfc"></rect><path d="M30.11 73.02Q37.07 73.02 41.43 71.06Q45.79 69.10 47.69 65.97Q49.60 62.84 49.60 59.10L49.60 59.10Q49.60 56.57 48.28 54.19Q46.96 51.81 44.40 50.20Q41.83 48.59 38.24 48.41L38.24 48.41L38.24 48.15Q42.20 46.72 43.99 43.81Q45.79 40.90 45.79 37.60L45.79 37.60Q45.79 34.71 44.09 32.29Q42.38 29.88 38.79 28.43Q35.21 26.98 29.79 26.98L29.79 26.98Q25.50 26.98 21.45 27.42Q17.41 27.86 11.77 28.67L11.77 28.67L11.40 31.49L17.66 32.59L17.66 68.59L11.55 70.31L11.15 73.02L30.11 73.02ZM24.69 30.39Q26.42 30.13 27.62 30.13L27.62 30.13Q33.70 30.13 36.30 32.92Q38.90 35.70 38.90 39.73L38.90 39.73Q38.90 42.84 37.71 44.84Q36.52 46.83 34.14 47.82L34.14 47.82L24.69 47.82L24.69 30.39ZM24.69 50.86L32.86 50.86Q35.90 50.86 38.06 52.23Q40.22 53.61 41.32 55.77Q42.42 57.93 42.42 60.31L42.42 60.31Q42.42 62.73 41.30 64.83Q40.19 66.94 37.99 68.22Q35.79 69.50 32.75 69.50L32.75 69.50L24.69 69.50L24.69 50.86ZM74.13 73.02L74.65 69.98L65.97 68.55L65.97 30.32Q66.33 30.28 67.56 30.19Q68.79 30.10 69.70 30.10L69.70 30.10Q75.60 30.10 78.44 33.34Q81.27 36.58 81.27 41.67L81.27 41.67Q81.27 46.58 78.38 49.08Q75.49 51.59 69.59 51.74L69.59 51.74L67.65 51.78L68.31 54.82L69.37 54.85Q70.98 54.93 71.97 54.93L71.97 54.93Q76.44 54.93 80.32 53.08Q84.20 51.23 86.53 47.89Q88.85 44.56 88.85 40.35L88.85 40.35Q88.85 32.95 83.80 30.00Q78.75 27.06 70.47 27.06L70.47 27.06Q66.33 27.06 62.16 27.50Q57.98 27.94 53.04 28.67L53.04 28.67L52.67 31.49L58.94 32.59L58.94 68.59L52.82 70.31L52.42 73.02L74.13 73.02Z" fill="#469f14"></path></svg>